<svg version="1.1" viewBox="0.0 0.0 512.0 512.0" fill="none" stroke="none" stroke-linecap="square" stroke-miterlimit="10" xmlns:xlink="http://www.w3.org/1999/xlink" xmlns="http://www.w3.org/2000/svg"><clipPath id="p.0"><path d="m0 0l512.0 0l0 512.0l-512.0 0l0 -512.0z" clip-rule="nonzero"/></clipPath><g clip-path="url(#p.0)"><path fill="#262626" d="m0 0l512.0 0l0 512.0l-512.0 0z" fill-rule="evenodd"/><path fill="#000000" fill-opacity="0.0" d="m131.90552 91.75936l0 0c0 -22.845627 18.520035 -41.36566 41.365646 -41.36566l165.45766 0l0 0c10.970856 0 21.49237 4.3581543 29.249939 12.115723c7.7575684 7.7575607 12.115723 18.279083 12.115723 29.249939l0 328.48126c0 22.845642 -18.52002 41.36566 -41.36566 41.36566l-165.45766 0c-22.845612 0 -41.365646 -18.52002 -41.365646 -41.36566z" fill-rule="evenodd"/><path stroke="#4f46e5" stroke-width="4.0" stroke-linejoin="round" stroke-linecap="butt" d="m131.90552 91.75936l0 0c0 -22.845627 18.520035 -41.36566 41.365646 -41.36566l165.45766 0l0 0c10.970856 0 21.49237 4.3581543 29.249939 12.115723c7.7575684 7.7575607 12.115723 18.279083 12.115723 29.249939l0 328.48126c0 22.845642 -18.52002 41.36566 -41.36566 41.36566l-165.45766 0c-22.845612 0 -41.365646 -18.52002 -41.365646 -41.36566z" fill-rule="evenodd"/><path fill="#404040" d="m157.92537 111.304115l0 0c0 -13.767715 11.16095 -24.928658 24.928665 -24.928658l143.84348 0c6.6114807 0 12.952179 2.6264038 17.627228 7.3014374c4.6750183 4.675026 7.301422 11.015732 7.301422 17.62722l0 29.10331l0 0c0 13.767715 -11.16095 24.928665 -24.92865 24.928665l-143.84348 0l0 0c-13.767715 0 -24.928665 -11.16095 -24.928665 -24.928665z" fill-rule="evenodd"/><path fill="#4f46e5" d="m157.92537 243.69821l0 0c0 -17.516556 12.860367 -31.716537 28.724411 -31.716537l0 0c7.6181946 0 14.924362 3.3415527 20.311234 9.289566c5.3868713 5.947998 8.4131775 14.015228 8.4131775 22.426971l0 0c0 17.516571 -12.860352 31.716522 -28.724411 31.716522l0 0c-15.864044 0 -28.724411 -14.199951 -28.724411 -31.716522z" fill-rule="evenodd"/><path fill="#4f46e5" d="m224.47656 243.69821l0 0c0 -17.516556 12.860352 -31.716537 28.724411 -31.716537l0 0c7.6181793 0 14.924362 3.3415527 20.311234 9.289566c5.3868713 5.947998 8.4131775 14.015228 8.4131775 22.426971l0 0c0 17.516571 -12.860352 31.716522 -28.724411 31.716522l0 0c-15.864059 0 -28.724411 -14.199951 -28.724411 -31.716522z" fill-rule="evenodd"/><path fill="#4f46e5" d="m291.02774 243.69821l0 0c0 -17.516556 12.860382 -31.716537 28.724426 -31.716537l0 0c7.6181946 0 14.924347 3.3415527 20.311218 9.289566c5.3868713 5.947998 8.4131775 14.015228 8.4131775 22.426971l0 0c0 17.516571 -12.860352 31.716522 -28.724396 31.716522l0 0c-15.864044 0 -28.724426 -14.199951 -28.724426 -31.716522z" fill-rule="evenodd"/><path fill="#a78bfa" d="m157.92537 322.85684l0 0c0 -17.516571 12.860367 -31.716553 28.724411 -31.716553l0 0c7.6181946 0 14.924362 3.3415527 20.311234 9.289551c5.3868713 5.9480286 8.4131775 14.015228 8.4131775 22.427002l0 0c0 17.51654 -12.860352 31.716522 -28.724411 31.716522l0 0c-15.864044 0 -28.724411 -14.199982 -28.724411 -31.716522z" fill-rule="evenodd"/><path fill="#4f46e5" d="m224.47656 322.85684l0 0c0 -17.516571 12.860352 -31.716553 28.724411 -31.716553l0 0c7.6181793 0 14.924362 3.3415527 20.311234 9.289551c5.3868713 5.9480286 8.4131775 14.015228 8.4131775 22.427002l0 0c0 17.51654 -12.860352 31.716522 -28.724411 31.716522l0 0c-15.864059 0 -28.724411 -14.199982 -28.724411 -31.716522z" fill-rule="evenodd"/><path fill="#4f46e5" d="m291.02774 322.85684l0 0c0 -17.516571 12.860382 -31.716553 28.724426 -31.716553l0 0c7.6181946 0 14.924347 3.3415527 20.311218 9.289551c5.3868713 5.9480286 8.4131775 14.015228 8.4131775 22.427002l0 0c0 17.51654 -12.860352 31.716522 -28.724396 31.716522l0 0c-15.864044 0 -28.724426 -14.199982 -28.724426 -31.716522z" fill-rule="evenodd"/><path fill="#a78bfa" d="m157.92537 402.01544l0 0c0 -17.516571 12.860367 -31.716522 28.724411 -31.716522l0 0c7.6181946 0 14.924362 3.3415527 20.311234 9.289551c5.3868713 5.947998 8.4131775 14.015228 8.4131775 22.426971l0 0c0 17.516571 -12.860352 31.716522 -28.724411 31.716522l0 0c-15.864044 0 -28.724411 -14.199951 -28.724411 -31.716522z" fill-rule="evenodd"/><path fill="#a78bfa" d="m224.47656 402.01544l0 0c0 -17.516571 12.860352 -31.716522 28.724411 -31.716522l0 0c7.6181793 0 14.924362 3.3415527 20.311234 9.289551c5.3868713 5.947998 8.4131775 14.015228 8.4131775 22.426971l0 0c0 17.516571 -12.860352 31.716522 -28.724411 31.716522l0 0c-15.864059 0 -28.724411 -14.199951 -28.724411 -31.716522z" fill-rule="evenodd"/><path fill="#a78bfa" d="m291.02774 402.01544l0 0c0 -17.516571 12.860382 -31.716522 28.724426 -31.716522l0 0c7.6181946 0 14.924347 3.3415527 20.311218 9.289551c5.3868713 5.947998 8.4131775 14.015228 8.4131775 22.426971l0 0c0 17.516571 -12.860352 31.716522 -28.724396 31.716522l0 0c-15.864044 0 -28.724426 -14.199951 -28.724426 -31.716522z" fill-rule="evenodd"/><path fill="#a78bfa" d="m188.36528 118.37552l6.2757874 -5.6840134l6.215805 6.8629456l6.215805 -6.8629456l6.2757874 5.6840134l-6.7796783 7.4855194l6.7796783 7.4855347l-6.2757874 5.6840057l-6.215805 -6.8629456l-6.215805 6.8629456l-6.2757874 -5.6840057l6.7796783 -7.4855347z" fill-rule="evenodd"/><path fill="#a78bfa" d="m223.58488 121.33515l26.45639 0l0 8.987785l-26.45639 0z" fill-rule="evenodd"/><path fill="#a78bfa" d="m259.54105 121.62744l8.994598 0l0 -10.371811l8.467194 0l0 10.371811l8.994598 0l0 8.467194l-8.994598 0l0 10.371826l-8.467194 0l0 -10.371826l-8.994598 0z" fill-rule="evenodd"/><path fill="#a78bfa" d="m308.72543 110.67332l0 0c2.5815735 0 4.6743774 2.0927887 4.6743774 4.67437c0 2.581581 -2.092804 4.67437 -4.6743774 4.67437c-2.5815735 0 -4.6743774 -2.0927887 -4.6743774 -4.67437c0 -2.581581 2.092804 -4.67437 4.6743774 -4.67437zm0 30.37545c-2.5815735 0 -4.6743774 -2.0927887 -4.6743774 -4.6743774c0 -2.5815735 2.092804 -4.674362 4.6743774 -4.674362c2.5815735 0 4.6743774 2.0927887 4.6743774 4.674362c0 2.5815887 -2.092804 4.6743774 -4.6743774 4.6743774zm-13.22821 -19.862091l26.45642 0l0 9.34874l-26.45642 0z" fill-rule="evenodd"/></g></svg>